<?xml version="1.0" standalone="no"?>
 <!DOCTYPE svg PUBLIC "-//W3C//DTD SVG 1.1//EN" 
 "http://www.w3.org/Graphics/SVG/1.1/DTD/svg11.dtd"> 
<svg xmlns="http://www.w3.org/2000/svg" version="1.1" 
    width="29.7002cm" height="21.0007cm" viewBox="0 0 116930 82680 ">
<title>SVG Picture created as 2bitAdder-B.Cu.svg date 2017/11/08 23:30:37 </title>
  <desc>Picture generated by PCBNEW </desc>
<g style="fill:#000000; fill-opacity:1;stroke:#000000; stroke-opacity:1;
stroke-linecap:round; stroke-linejoin:round; "
 transform="translate(0 0) scale(1 1)">
</g>
<g style="fill:#000000; fill-opacity:0.0; 
stroke:#000000; stroke-width:-0.000393701; stroke-opacity:1; 
stroke-linecap:round; stroke-linejoin:round;">
</g>
<g style="fill:#000000; fill-opacity:0.0; 
stroke:#000000; stroke-width:0; stroke-opacity:1; 
stroke-linecap:round; stroke-linejoin:round;">
</g>
<g style="fill:#000000; fill-opacity:1.0; 
stroke:#000000; stroke-width:0; stroke-opacity:1; 
stroke-linecap:round; stroke-linejoin:round;">
<polyline style="fill-rule:evenodd;"
points="48645,30645
49354,30645
49354,31354
48645,31354
48645,30645
" /> 
<circle cx="49000" cy="32000" r="354.331" /> 
</g>
<g style="fill:#000000; fill-opacity:1.0; 
stroke:#000000; stroke-width:39.3701; stroke-opacity:1; 
stroke-linecap:round; stroke-linejoin:round;">
</g>
<g style="fill:#000000; fill-opacity:1.0; 
stroke:#000000; stroke-width:0; stroke-opacity:1; 
stroke-linecap:round; stroke-linejoin:round;">
<polyline style="fill-rule:evenodd;"
points="45645,30645
46354,30645
46354,31354
45645,31354
45645,30645
" /> 
<circle cx="46000" cy="32000" r="354.331" /> 
</g>
<g style="fill:#000000; fill-opacity:1.0; 
stroke:#000000; stroke-width:39.3701; stroke-opacity:1; 
stroke-linecap:round; stroke-linejoin:round;">
</g>
<g style="fill:#000000; fill-opacity:1.0; 
stroke:#000000; stroke-width:0; stroke-opacity:1; 
stroke-linecap:round; stroke-linejoin:round;">
<polyline style="fill-rule:evenodd;"
points="42645,30645
43354,30645
43354,31354
42645,31354
42645,30645
" /> 
<circle cx="43000" cy="32000" r="354.331" /> 
</g>
<g style="fill:#000000; fill-opacity:1.0; 
stroke:#000000; stroke-width:39.3701; stroke-opacity:1; 
stroke-linecap:round; stroke-linejoin:round;">
</g>
<g style="fill:#000000; fill-opacity:1.0; 
stroke:#000000; stroke-width:0; stroke-opacity:1; 
stroke-linecap:round; stroke-linejoin:round;">
<polyline style="fill-rule:evenodd;"
points="52834,35165
52834,35834
52165,35834
52165,35165
52834,35165
" /> 
</g>
<g style="fill:#000000; fill-opacity:1.0; 
stroke:#000000; stroke-width:669.291; stroke-opacity:1; 
stroke-linecap:round; stroke-linejoin:round;">
</g>
<g style="fill:#000000; fill-opacity:0.0; 
stroke:#000000; stroke-width:669.291; stroke-opacity:1; 
stroke-linecap:round; stroke-linejoin:round;">
<path d="M52500 34500
L52500 34500
" />
</g>
<g style="fill:#000000; fill-opacity:1.0; 
stroke:#000000; stroke-width:0; stroke-opacity:1; 
stroke-linecap:round; stroke-linejoin:round;">
<circle cx="49000" cy="37500" r="314.961" /> 
</g>
<g style="fill:#000000; fill-opacity:1.0; 
stroke:#000000; stroke-width:39.3701; stroke-opacity:1; 
stroke-linecap:round; stroke-linejoin:round;">
</g>
<g style="fill:#000000; fill-opacity:1.0; 
stroke:#000000; stroke-width:629.921; stroke-opacity:1; 
stroke-linecap:round; stroke-linejoin:round;">
</g>
<g style="fill:#000000; fill-opacity:0.0; 
stroke:#000000; stroke-width:629.921; stroke-opacity:1; 
stroke-linecap:round; stroke-linejoin:round;">
<path d="M49000 33500
L49000 33500
" />
</g>
<g style="fill:#000000; fill-opacity:1.0; 
stroke:#000000; stroke-width:0; stroke-opacity:1; 
stroke-linecap:round; stroke-linejoin:round;">
<circle cx="35000" cy="38500" r="314.961" /> 
</g>
<g style="fill:#000000; fill-opacity:1.0; 
stroke:#000000; stroke-width:39.3701; stroke-opacity:1; 
stroke-linecap:round; stroke-linejoin:round;">
</g>
<g style="fill:#000000; fill-opacity:1.0; 
stroke:#000000; stroke-width:629.921; stroke-opacity:1; 
stroke-linecap:round; stroke-linejoin:round;">
</g>
<g style="fill:#000000; fill-opacity:0.0; 
stroke:#000000; stroke-width:629.921; stroke-opacity:1; 
stroke-linecap:round; stroke-linejoin:round;">
<path d="M39000 38500
L39000 38500
" />
</g>
<g style="fill:#000000; fill-opacity:1.0; 
stroke:#000000; stroke-width:0; stroke-opacity:1; 
stroke-linecap:round; stroke-linejoin:round;">
<circle cx="35000" cy="44000" r="314.961" /> 
</g>
<g style="fill:#000000; fill-opacity:1.0; 
stroke:#000000; stroke-width:39.3701; stroke-opacity:1; 
stroke-linecap:round; stroke-linejoin:round;">
</g>
<g style="fill:#000000; fill-opacity:1.0; 
stroke:#000000; stroke-width:629.921; stroke-opacity:1; 
stroke-linecap:round; stroke-linejoin:round;">
</g>
<g style="fill:#000000; fill-opacity:0.0; 
stroke:#000000; stroke-width:629.921; stroke-opacity:1; 
stroke-linecap:round; stroke-linejoin:round;">
<path d="M39000 44000
L39000 44000
" />
</g>
<g style="fill:#000000; fill-opacity:1.0; 
stroke:#000000; stroke-width:0; stroke-opacity:1; 
stroke-linecap:round; stroke-linejoin:round;">
<circle cx="46000" cy="37500" r="314.961" /> 
</g>
<g style="fill:#000000; fill-opacity:1.0; 
stroke:#000000; stroke-width:39.3701; stroke-opacity:1; 
stroke-linecap:round; stroke-linejoin:round;">
</g>
<g style="fill:#000000; fill-opacity:1.0; 
stroke:#000000; stroke-width:629.921; stroke-opacity:1; 
stroke-linecap:round; stroke-linejoin:round;">
</g>
<g style="fill:#000000; fill-opacity:0.0; 
stroke:#000000; stroke-width:629.921; stroke-opacity:1; 
stroke-linecap:round; stroke-linejoin:round;">
<path d="M46000 33500
L46000 33500
" />
</g>
<g style="fill:#000000; fill-opacity:1.0; 
stroke:#000000; stroke-width:0; stroke-opacity:1; 
stroke-linecap:round; stroke-linejoin:round;">
<circle cx="43000" cy="37500" r="314.961" /> 
</g>
<g style="fill:#000000; fill-opacity:1.0; 
stroke:#000000; stroke-width:39.3701; stroke-opacity:1; 
stroke-linecap:round; stroke-linejoin:round;">
</g>
<g style="fill:#000000; fill-opacity:1.0; 
stroke:#000000; stroke-width:629.921; stroke-opacity:1; 
stroke-linecap:round; stroke-linejoin:round;">
</g>
<g style="fill:#000000; fill-opacity:0.0; 
stroke:#000000; stroke-width:629.921; stroke-opacity:1; 
stroke-linecap:round; stroke-linejoin:round;">
<path d="M43000 33500
L43000 33500
" />
</g>
<g style="fill:#000000; fill-opacity:1.0; 
stroke:#000000; stroke-width:0; stroke-opacity:1; 
stroke-linecap:round; stroke-linejoin:round;">
<circle cx="35000" cy="49500" r="314.961" /> 
</g>
<g style="fill:#000000; fill-opacity:1.0; 
stroke:#000000; stroke-width:39.3701; stroke-opacity:1; 
stroke-linecap:round; stroke-linejoin:round;">
</g>
<g style="fill:#000000; fill-opacity:1.0; 
stroke:#000000; stroke-width:629.921; stroke-opacity:1; 
stroke-linecap:round; stroke-linejoin:round;">
</g>
<g style="fill:#000000; fill-opacity:0.0; 
stroke:#000000; stroke-width:629.921; stroke-opacity:1; 
stroke-linecap:round; stroke-linejoin:round;">
<path d="M39000 49500
L39000 49500
" />
</g>
<g style="fill:#000000; fill-opacity:1.0; 
stroke:#000000; stroke-width:0; stroke-opacity:1; 
stroke-linecap:round; stroke-linejoin:round;">
<circle cx="35000" cy="55000" r="314.961" /> 
</g>
<g style="fill:#000000; fill-opacity:1.0; 
stroke:#000000; stroke-width:39.3701; stroke-opacity:1; 
stroke-linecap:round; stroke-linejoin:round;">
</g>
<g style="fill:#000000; fill-opacity:1.0; 
stroke:#000000; stroke-width:629.921; stroke-opacity:1; 
stroke-linecap:round; stroke-linejoin:round;">
</g>
<g style="fill:#000000; fill-opacity:0.0; 
stroke:#000000; stroke-width:629.921; stroke-opacity:1; 
stroke-linecap:round; stroke-linejoin:round;">
<path d="M39000 55000
L39000 55000
" />
</g>
<g style="fill:#000000; fill-opacity:1.0; 
stroke:#000000; stroke-width:0; stroke-opacity:1; 
stroke-linecap:round; stroke-linejoin:round;">
<circle cx="36500" cy="36771.7" r="393.701" /> 
</g>
<g style="fill:#000000; fill-opacity:1.0; 
stroke:#000000; stroke-width:39.3701; stroke-opacity:1; 
stroke-linecap:round; stroke-linejoin:round;">
</g>
<g style="fill:#000000; fill-opacity:1.0; 
stroke:#000000; stroke-width:0; stroke-opacity:1; 
stroke-linecap:round; stroke-linejoin:round;">
<circle cx="36500" cy="35000" r="393.701" /> 
</g>
<g style="fill:#000000; fill-opacity:1.0; 
stroke:#000000; stroke-width:39.3701; stroke-opacity:1; 
stroke-linecap:round; stroke-linejoin:round;">
</g>
<g style="fill:#000000; fill-opacity:1.0; 
stroke:#000000; stroke-width:0; stroke-opacity:1; 
stroke-linecap:round; stroke-linejoin:round;">
<circle cx="39059.1" cy="36771.7" r="393.701" /> 
</g>
<g style="fill:#000000; fill-opacity:1.0; 
stroke:#000000; stroke-width:39.3701; stroke-opacity:1; 
stroke-linecap:round; stroke-linejoin:round;">
</g>
<g style="fill:#000000; fill-opacity:1.0; 
stroke:#000000; stroke-width:0; stroke-opacity:1; 
stroke-linecap:round; stroke-linejoin:round;">
<circle cx="39059.1" cy="35000" r="393.701" /> 
</g>
<g style="fill:#000000; fill-opacity:1.0; 
stroke:#000000; stroke-width:39.3701; stroke-opacity:1; 
stroke-linecap:round; stroke-linejoin:round;">
</g>
<g style="fill:#000000; fill-opacity:1.0; 
stroke:#000000; stroke-width:0; stroke-opacity:1; 
stroke-linecap:round; stroke-linejoin:round;">
<circle cx="36500" cy="42271.7" r="393.701" /> 
</g>
<g style="fill:#000000; fill-opacity:1.0; 
stroke:#000000; stroke-width:39.3701; stroke-opacity:1; 
stroke-linecap:round; stroke-linejoin:round;">
</g>
<g style="fill:#000000; fill-opacity:1.0; 
stroke:#000000; stroke-width:0; stroke-opacity:1; 
stroke-linecap:round; stroke-linejoin:round;">
<circle cx="36500" cy="40500" r="393.701" /> 
</g>
<g style="fill:#000000; fill-opacity:1.0; 
stroke:#000000; stroke-width:39.3701; stroke-opacity:1; 
stroke-linecap:round; stroke-linejoin:round;">
</g>
<g style="fill:#000000; fill-opacity:1.0; 
stroke:#000000; stroke-width:0; stroke-opacity:1; 
stroke-linecap:round; stroke-linejoin:round;">
<circle cx="39059.1" cy="42271.7" r="393.701" /> 
</g>
<g style="fill:#000000; fill-opacity:1.0; 
stroke:#000000; stroke-width:39.3701; stroke-opacity:1; 
stroke-linecap:round; stroke-linejoin:round;">
</g>
<g style="fill:#000000; fill-opacity:1.0; 
stroke:#000000; stroke-width:0; stroke-opacity:1; 
stroke-linecap:round; stroke-linejoin:round;">
<circle cx="39059.1" cy="40500" r="393.701" /> 
</g>
<g style="fill:#000000; fill-opacity:1.0; 
stroke:#000000; stroke-width:39.3701; stroke-opacity:1; 
stroke-linecap:round; stroke-linejoin:round;">
</g>
<g style="fill:#000000; fill-opacity:1.0; 
stroke:#000000; stroke-width:0; stroke-opacity:1; 
stroke-linecap:round; stroke-linejoin:round;">
<circle cx="36500" cy="47771.7" r="393.701" /> 
</g>
<g style="fill:#000000; fill-opacity:1.0; 
stroke:#000000; stroke-width:39.3701; stroke-opacity:1; 
stroke-linecap:round; stroke-linejoin:round;">
</g>
<g style="fill:#000000; fill-opacity:1.0; 
stroke:#000000; stroke-width:0; stroke-opacity:1; 
stroke-linecap:round; stroke-linejoin:round;">
<circle cx="36500" cy="46000" r="393.701" /> 
</g>
<g style="fill:#000000; fill-opacity:1.0; 
stroke:#000000; stroke-width:39.3701; stroke-opacity:1; 
stroke-linecap:round; stroke-linejoin:round;">
</g>
<g style="fill:#000000; fill-opacity:1.0; 
stroke:#000000; stroke-width:0; stroke-opacity:1; 
stroke-linecap:round; stroke-linejoin:round;">
<circle cx="39059.1" cy="47771.7" r="393.701" /> 
</g>
<g style="fill:#000000; fill-opacity:1.0; 
stroke:#000000; stroke-width:39.3701; stroke-opacity:1; 
stroke-linecap:round; stroke-linejoin:round;">
</g>
<g style="fill:#000000; fill-opacity:1.0; 
stroke:#000000; stroke-width:0; stroke-opacity:1; 
stroke-linecap:round; stroke-linejoin:round;">
<circle cx="39059.1" cy="46000" r="393.701" /> 
</g>
<g style="fill:#000000; fill-opacity:1.0; 
stroke:#000000; stroke-width:39.3701; stroke-opacity:1; 
stroke-linecap:round; stroke-linejoin:round;">
</g>
<g style="fill:#000000; fill-opacity:1.0; 
stroke:#000000; stroke-width:0; stroke-opacity:1; 
stroke-linecap:round; stroke-linejoin:round;">
<circle cx="36500" cy="53271.7" r="393.701" /> 
</g>
<g style="fill:#000000; fill-opacity:1.0; 
stroke:#000000; stroke-width:39.3701; stroke-opacity:1; 
stroke-linecap:round; stroke-linejoin:round;">
</g>
<g style="fill:#000000; fill-opacity:1.0; 
stroke:#000000; stroke-width:0; stroke-opacity:1; 
stroke-linecap:round; stroke-linejoin:round;">
<circle cx="36500" cy="51500" r="393.701" /> 
</g>
<g style="fill:#000000; fill-opacity:1.0; 
stroke:#000000; stroke-width:39.3701; stroke-opacity:1; 
stroke-linecap:round; stroke-linejoin:round;">
</g>
<g style="fill:#000000; fill-opacity:1.0; 
stroke:#000000; stroke-width:0; stroke-opacity:1; 
stroke-linecap:round; stroke-linejoin:round;">
<circle cx="39059.1" cy="53271.7" r="393.701" /> 
</g>
<g style="fill:#000000; fill-opacity:1.0; 
stroke:#000000; stroke-width:39.3701; stroke-opacity:1; 
stroke-linecap:round; stroke-linejoin:round;">
</g>
<g style="fill:#000000; fill-opacity:1.0; 
stroke:#000000; stroke-width:0; stroke-opacity:1; 
stroke-linecap:round; stroke-linejoin:round;">
<circle cx="39059.1" cy="51500" r="393.701" /> 
</g>
<g style="fill:#000000; fill-opacity:1.0; 
stroke:#000000; stroke-width:39.3701; stroke-opacity:1; 
stroke-linecap:round; stroke-linejoin:round;">
</g>
<g style="fill:#000000; fill-opacity:1.0; 
stroke:#000000; stroke-width:0; stroke-opacity:1; 
stroke-linecap:round; stroke-linejoin:round;">
<polyline style="fill-rule:evenodd;"
points="43027,40314
43027,39685
43972,39685
43972,40314
43027,40314
" /> 
</g>
<g style="fill:#000000; fill-opacity:1.0; 
stroke:#000000; stroke-width:629.921; stroke-opacity:1; 
stroke-linecap:round; stroke-linejoin:round;">
</g>
<g style="fill:#000000; fill-opacity:0.0; 
stroke:#000000; stroke-width:629.921; stroke-opacity:1; 
stroke-linecap:round; stroke-linejoin:round;">
<path d="M46342 46000
L46657 46000
" />
<path d="M43342 41000
L43657 41000
" />
<path d="M46342 45000
L46657 45000
" />
<path d="M43342 42000
L43657 42000
" />
<path d="M46342 44000
L46657 44000
" />
<path d="M43342 43000
L43657 43000
" />
<path d="M46342 43000
L46657 43000
" />
<path d="M43342 44000
L43657 44000
" />
<path d="M46342 42000
L46657 42000
" />
<path d="M43342 45000
L43657 45000
" />
<path d="M46342 41000
L46657 41000
" />
<path d="M43342 46000
L43657 46000
" />
<path d="M46342 40000
L46657 40000
" />
</g>
<g style="fill:#000000; fill-opacity:0.0; 
stroke:#000000; stroke-width:0; stroke-opacity:1; 
stroke-linecap:round; stroke-linejoin:round;">
</g>
<g style="fill:#000000; fill-opacity:1.0; 
stroke:#000000; stroke-width:0; stroke-opacity:1; 
stroke-linecap:round; stroke-linejoin:round;">
<polyline style="fill-rule:evenodd;"
points="43027,49814
43027,49185
43972,49185
43972,49814
43027,49814
" /> 
</g>
<g style="fill:#000000; fill-opacity:1.0; 
stroke:#000000; stroke-width:629.921; stroke-opacity:1; 
stroke-linecap:round; stroke-linejoin:round;">
</g>
<g style="fill:#000000; fill-opacity:0.0; 
stroke:#000000; stroke-width:629.921; stroke-opacity:1; 
stroke-linecap:round; stroke-linejoin:round;">
<path d="M46342 55500
L46657 55500
" />
<path d="M43342 50500
L43657 50500
" />
<path d="M46342 54500
L46657 54500
" />
<path d="M43342 51500
L43657 51500
" />
<path d="M46342 53500
L46657 53500
" />
<path d="M43342 52500
L43657 52500
" />
<path d="M46342 52500
L46657 52500
" />
<path d="M43342 53500
L43657 53500
" />
<path d="M46342 51500
L46657 51500
" />
<path d="M43342 54500
L43657 54500
" />
<path d="M46342 50500
L46657 50500
" />
<path d="M43342 55500
L43657 55500
" />
<path d="M46342 49500
L46657 49500
" />
</g>
<g style="fill:#000000; fill-opacity:0.0; 
stroke:#000000; stroke-width:0; stroke-opacity:1; 
stroke-linecap:round; stroke-linejoin:round;">
</g>
<g style="fill:#000000; fill-opacity:1.0; 
stroke:#000000; stroke-width:0; stroke-opacity:1; 
stroke-linecap:round; stroke-linejoin:round;">
<polyline style="fill-rule:evenodd;"
points="53472,49185
53472,49814
52527,49814
52527,49185
53472,49185
" /> 
</g>
<g style="fill:#000000; fill-opacity:1.0; 
stroke:#000000; stroke-width:629.921; stroke-opacity:1; 
stroke-linecap:round; stroke-linejoin:round;">
</g>
<g style="fill:#000000; fill-opacity:0.0; 
stroke:#000000; stroke-width:629.921; stroke-opacity:1; 
stroke-linecap:round; stroke-linejoin:round;">
<path d="M50157 43500
L49842 43500
" />
<path d="M53157 48500
L52842 48500
" />
<path d="M50157 44500
L49842 44500
" />
<path d="M53157 47500
L52842 47500
" />
<path d="M50157 45500
L49842 45500
" />
<path d="M53157 46500
L52842 46500
" />
<path d="M50157 46500
L49842 46500
" />
<path d="M53157 45500
L52842 45500
" />
<path d="M50157 47500
L49842 47500
" />
<path d="M53157 44500
L52842 44500
" />
<path d="M50157 48500
L49842 48500
" />
<path d="M53157 43500
L52842 43500
" />
<path d="M50157 49500
L49842 49500
" />
</g>
<g style="fill:#000000; fill-opacity:1.0; 
stroke:#000000; stroke-width:0; stroke-opacity:1; 
stroke-linecap:round; stroke-linejoin:round;">
<circle cx="40500" cy="39500" r="118.11" /> 
</g>
<g style="fill:#000000; fill-opacity:1.0; 
stroke:#000000; stroke-width:39.3701; stroke-opacity:1; 
stroke-linecap:round; stroke-linejoin:round;">
</g>
<g style="fill:#000000; fill-opacity:1.0; 
stroke:#000000; stroke-width:0; stroke-opacity:1; 
stroke-linecap:round; stroke-linejoin:round;">
<circle cx="41500" cy="38500" r="118.11" /> 
</g>
<g style="fill:#000000; fill-opacity:1.0; 
stroke:#000000; stroke-width:39.3701; stroke-opacity:1; 
stroke-linecap:round; stroke-linejoin:round;">
</g>
<g style="fill:#000000; fill-opacity:1.0; 
stroke:#000000; stroke-width:0; stroke-opacity:1; 
stroke-linecap:round; stroke-linejoin:round;">
<circle cx="41500" cy="49000" r="118.11" /> 
</g>
<g style="fill:#000000; fill-opacity:1.0; 
stroke:#000000; stroke-width:39.3701; stroke-opacity:1; 
stroke-linecap:round; stroke-linejoin:round;">
</g>
<g style="fill:#000000; fill-opacity:1.0; 
stroke:#000000; stroke-width:0; stroke-opacity:1; 
stroke-linecap:round; stroke-linejoin:round;">
<circle cx="44500" cy="35500" r="118.11" /> 
</g>
<g style="fill:#000000; fill-opacity:1.0; 
stroke:#000000; stroke-width:39.3701; stroke-opacity:1; 
stroke-linecap:round; stroke-linejoin:round;">
</g>
<g style="fill:#000000; fill-opacity:1.0; 
stroke:#000000; stroke-width:0; stroke-opacity:1; 
stroke-linecap:round; stroke-linejoin:round;">
<circle cx="41500" cy="50500" r="118.11" /> 
</g>
<g style="fill:#000000; fill-opacity:1.0; 
stroke:#000000; stroke-width:39.3701; stroke-opacity:1; 
stroke-linecap:round; stroke-linejoin:round;">
</g>
<g style="fill:#000000; fill-opacity:1.0; 
stroke:#000000; stroke-width:0; stroke-opacity:1; 
stroke-linecap:round; stroke-linejoin:round;">
<circle cx="48500" cy="50500" r="118.11" /> 
</g>
<g style="fill:#000000; fill-opacity:1.0; 
stroke:#000000; stroke-width:39.3701; stroke-opacity:1; 
stroke-linecap:round; stroke-linejoin:round;">
</g>
<g style="fill:#000000; fill-opacity:1.0; 
stroke:#000000; stroke-width:250; stroke-opacity:1; 
stroke-linecap:round; stroke-linejoin:round;">
</g>
<g style="fill:#000000; fill-opacity:0.0; 
stroke:#000000; stroke-width:250; stroke-opacity:1; 
stroke-linecap:round; stroke-linejoin:round;">
<path d="M52500 34500
L52500 34000
" />
<path d="M52500 34000
L49500 31000
" />
<path d="M49500 31000
L49000 31000
" />
<path d="M46500 53500
L45500 53500
" />
<path d="M45500 53500
L45500 54000
" />
<path d="M45500 54000
L44500 55000
" />
<path d="M44500 55000
L44500 55500
" />
<path d="M44500 55500
L43500 55500
" />
<path d="M43500 55500
L43000 56000
" />
<path d="M43000 56000
L38000 56000
" />
<path d="M38000 56000
L37000 55000
" />
<path d="M37000 55000
L35000 55000
" />
<path d="M46500 45000
L45500 45000
" />
<path d="M45500 45000
L44500 46000
" />
<path d="M44500 46000
L43500 46000
" />
<path d="M46000 31000
L43000 31000
" />
<path d="M49000 31000
L46000 31000
" />
<path d="M40500 39500
L41000 39000
" />
<path d="M41000 39000
L42000 39000
" />
<path d="M42000 39000
L42000 38500
" />
<path d="M42000 38500
L46000 38500
" />
<path d="M46000 38500
L46500 39000
" />
<path d="M46500 39000
L47500 39000
" />
<path d="M47500 39000
L47500 40000
" />
<path d="M47500 40000
L48000 40500
" />
<path d="M48000 40500
L48000 48000
" />
<path d="M48000 48000
L46500 49500
" />
<path d="M46500 40000
L45500 39000
" />
<path d="M45500 39000
L42500 39000
" />
<path d="M42500 39000
L41000 40500
" />
<path d="M41000 40500
L39059 40500
" />
<path d="M46500 49500
L50000 49500
" />
<path d="M36500 46000
L39059 46000
" />
<path d="M39059 40500
L36500 40500
" />
<path d="M36500 35000
L39059 35000
" />
<path d="M36500 51500
L39059 51500
" />
<path d="M39000 38500
L41500 38500
" />
<path d="M39059 36771
L39000 37000
" />
<path d="M39000 37000
L36500 37000
" />
<path d="M36500 37000
L36500 36771
" />
<path d="M39059 42271
L39000 42500
" />
<path d="M39000 42500
L40500 41000
" />
<path d="M40500 41000
L43500 41000
" />
<path d="M41500 49000
L42500 50000
" />
<path d="M42500 50000
L42500 50500
" />
<path d="M42500 50500
L43500 50500
" />
<path d="M39059 42271
L39000 42500
" />
<path d="M39000 42500
L36500 42500
" />
<path d="M36500 42500
L36500 42271
" />
<path d="M44500 35500
L45000 36000
" />
<path d="M45000 36000
L47000 36000
" />
<path d="M47000 36000
L47500 36500
" />
<path d="M47500 36500
L47500 37000
" />
<path d="M47500 37000
L48000 37500
" />
<path d="M48000 37500
L48000 38000
" />
<path d="M48000 38000
L48500 38000
" />
<path d="M48500 38000
L48500 39000
" />
<path d="M48500 39000
L51500 42000
" />
<path d="M51500 42000
L51500 43500
" />
<path d="M51500 43500
L52000 44000
" />
<path d="M52000 44000
L52000 44500
" />
<path d="M52000 44500
L53000 44500
" />
<path d="M41500 50500
L41500 50000
" />
<path d="M41500 50000
L39500 48000
" />
<path d="M39500 48000
L39000 48000
" />
<path d="M39000 48000
L39059 47771
" />
<path d="M39000 49500
L42000 52500
" />
<path d="M42000 52500
L43500 52500
" />
<path d="M39059 47771
L39000 48000
" />
<path d="M39000 48000
L36500 48000
" />
<path d="M36500 48000
L36500 47771
" />
<path d="M43500 53500
L39000 53500
" />
<path d="M39000 53500
L39059 53271
" />
<path d="M39059 53271
L39000 53500
" />
<path d="M39000 53500
L36500 53500
" />
<path d="M36500 53500
L36500 53271
" />
<path d="M46500 46000
L45500 47000
" />
<path d="M45500 47000
L42500 47000
" />
<path d="M42500 47000
L42500 42000
" />
<path d="M42500 42000
L43500 42000
" />
<path d="M48500 50500
L47500 51500
" />
<path d="M47500 51500
L46500 51500
" />
<path d="M43500 43000
L44500 43000
" />
<path d="M44500 43000
L45500 42000
" />
<path d="M45500 42000
L46500 42000
" />
<path d="M46500 50500
L47500 50500
" />
<path d="M47500 50500
L48000 50000
" />
<path d="M48000 50000
L49000 50000
" />
<path d="M49000 50000
L49000 50500
" />
<path d="M49000 50500
L51000 50500
" />
<path d="M51000 50500
L51000 49000
" />
<path d="M51000 49000
L52000 48000
" />
<path d="M52000 48000
L52000 47500
" />
<path d="M52000 47500
L53000 47500
" />
<path d="M46500 41000
L47500 41000
" />
<path d="M47500 41000
L47500 47000
" />
<path d="M47500 47000
L46000 48500
" />
<path d="M46000 48500
L45500 48500
" />
<path d="M45500 48500
L45500 50500
" />
<path d="M45500 50500
L46500 50500
" />
<path d="M46500 55500
L47500 55500
" />
<path d="M47500 55500
L47500 55000
" />
<path d="M47500 55000
L53000 49500
" />
<path d="M46500 52500
L45500 52500
" />
<path d="M45500 52500
L45500 51500
" />
<path d="M45500 51500
L45000 51000
" />
<path d="M45000 51000
L45000 49000
" />
<path d="M45000 49000
L43500 47500
" />
<path d="M43500 47500
L42000 47500
" />
<path d="M42000 47500
L39500 45000
" />
<path d="M39500 45000
L38000 45000
" />
<path d="M38000 45000
L36000 43000
" />
<path d="M36000 43000
L35500 43000
" />
<path d="M35500 43000
L35500 40000
" />
<path d="M35500 40000
L38000 37500
" />
<path d="M38000 37500
L40000 37500
" />
<path d="M40000 37500
L41000 36500
" />
<path d="M41000 36500
L46500 36500
" />
<path d="M46500 36500
L47000 37000
" />
<path d="M47000 37000
L47000 37500
" />
<path d="M47000 37500
L48000 38500
" />
<path d="M48000 38500
L48000 39500
" />
<path d="M48000 39500
L51000 42500
" />
<path d="M51000 42500
L51000 45000
" />
<path d="M51000 45000
L52000 46000
" />
<path d="M52000 46000
L52000 46500
" />
<path d="M52000 46500
L53000 46500
" />
</g> 
</svg>
