G04 #@! TF.FileFunction,Copper,L2,Bot,Signal*
%FSLAX46Y46*%
G04 Gerber Fmt 4.6, Leading zero omitted, Abs format (unit mm)*
G04 Created by KiCad (PCBNEW 4.0.7) date Wed Nov  8 23:29:03 2017*
%MOMM*%
%LPD*%
G01*
G04 APERTURE LIST*
%ADD10C,0.100000*%
%ADD11R,1.800000X1.800000*%
%ADD12C,1.800000*%
%ADD13R,1.700000X1.700000*%
%ADD14O,1.700000X1.700000*%
%ADD15C,1.600000*%
%ADD16O,1.600000X1.600000*%
%ADD17C,2.000000*%
%ADD18R,2.400000X1.600000*%
%ADD19O,2.400000X1.600000*%
%ADD20C,0.600000*%
%ADD21C,0.635000*%
G04 APERTURE END LIST*
D10*
D11*
X38100000Y67310000D03*
D12*
X38100000Y64770000D03*
D11*
X30480000Y67310000D03*
D12*
X30480000Y64770000D03*
D11*
X22860000Y67310000D03*
D12*
X22860000Y64770000D03*
D13*
X46990000Y55880000D03*
D14*
X46990000Y58420000D03*
D15*
X38100000Y50800000D03*
D16*
X38100000Y60960000D03*
D15*
X2540000Y48260000D03*
D16*
X12700000Y48260000D03*
D15*
X2540000Y34290000D03*
D16*
X12700000Y34290000D03*
D15*
X30480000Y50800000D03*
D16*
X30480000Y60960000D03*
D15*
X22860000Y50800000D03*
D16*
X22860000Y60960000D03*
D15*
X2540000Y20320000D03*
D16*
X12700000Y20320000D03*
D15*
X2540000Y6350000D03*
D16*
X12700000Y6350000D03*
D17*
X6350000Y52650000D03*
X6350000Y57150000D03*
X12850000Y52650000D03*
X12850000Y57150000D03*
X6350000Y38680000D03*
X6350000Y43180000D03*
X12850000Y38680000D03*
X12850000Y43180000D03*
X6350000Y24710000D03*
X6350000Y29210000D03*
X12850000Y24710000D03*
X12850000Y29210000D03*
X6350000Y10740000D03*
X6350000Y15240000D03*
X12850000Y10740000D03*
X12850000Y15240000D03*
D18*
X24130000Y44450000D03*
D19*
X31750000Y29210000D03*
X24130000Y41910000D03*
X31750000Y31750000D03*
X24130000Y39370000D03*
X31750000Y34290000D03*
X24130000Y36830000D03*
X31750000Y36830000D03*
X24130000Y34290000D03*
X31750000Y39370000D03*
X24130000Y31750000D03*
X31750000Y41910000D03*
X24130000Y29210000D03*
X31750000Y44450000D03*
D18*
X24130000Y20320000D03*
D19*
X31750000Y5080000D03*
X24130000Y17780000D03*
X31750000Y7620000D03*
X24130000Y15240000D03*
X31750000Y10160000D03*
X24130000Y12700000D03*
X31750000Y12700000D03*
X24130000Y10160000D03*
X31750000Y15240000D03*
X24130000Y7620000D03*
X31750000Y17780000D03*
X24130000Y5080000D03*
X31750000Y20320000D03*
D18*
X48260000Y20320000D03*
D19*
X40640000Y35560000D03*
X48260000Y22860000D03*
X40640000Y33020000D03*
X48260000Y25400000D03*
X40640000Y30480000D03*
X48260000Y27940000D03*
X40640000Y27940000D03*
X48260000Y30480000D03*
X40640000Y25400000D03*
X48260000Y33020000D03*
X40640000Y22860000D03*
X48260000Y35560000D03*
X40640000Y20320000D03*
D20*
X16510000Y45720000D03*
X19050000Y48260000D03*
X19050000Y21590000D03*
X26670000Y55880000D03*
X19050000Y17780000D03*
X36830000Y17780000D03*
D21*
X46990000Y58420000D02*
X46990000Y59690000D01*
X46990000Y59690000D02*
X39370000Y67310000D01*
X39370000Y67310000D02*
X38100000Y67310000D01*
X31750000Y10160000D02*
X29210000Y10160000D01*
X29210000Y10160000D02*
X29210000Y8890000D01*
X29210000Y8890000D02*
X26670000Y6350000D01*
X26670000Y6350000D02*
X26670000Y5080000D01*
X26670000Y5080000D02*
X24130000Y5080000D01*
X24130000Y5080000D02*
X22860000Y3810000D01*
X22860000Y3810000D02*
X10160000Y3810000D01*
X10160000Y3810000D02*
X7620000Y6350000D01*
X7620000Y6350000D02*
X2540000Y6350000D01*
X31750000Y31750000D02*
X29210000Y31750000D01*
X29210000Y31750000D02*
X26670000Y29210000D01*
X26670000Y29210000D02*
X24130000Y29210000D01*
X30480000Y67310000D02*
X22860000Y67310000D01*
X38100000Y67310000D02*
X30480000Y67310000D01*
X16510000Y45720000D02*
X17780000Y46990000D01*
X17780000Y46990000D02*
X20320000Y46990000D01*
X20320000Y46990000D02*
X20320000Y48260000D01*
X20320000Y48260000D02*
X30480000Y48260000D01*
X30480000Y48260000D02*
X31750000Y46990000D01*
X31750000Y46990000D02*
X34290000Y46990000D01*
X34290000Y46990000D02*
X34290000Y44450000D01*
X34290000Y44450000D02*
X35560000Y43180000D01*
X35560000Y43180000D02*
X35560000Y24130000D01*
X35560000Y24130000D02*
X31750000Y20320000D01*
X31750000Y44450000D02*
X29210000Y46990000D01*
X29210000Y46990000D02*
X21590000Y46990000D01*
X21590000Y46990000D02*
X17780000Y43180000D01*
X17780000Y43180000D02*
X12850000Y43180000D01*
X31750000Y20320000D02*
X40640000Y20320000D01*
X6350000Y29210000D02*
X12850000Y29210000D01*
X12850000Y43180000D02*
X6350000Y43180000D01*
X6350000Y57150000D02*
X12850000Y57150000D01*
X6350000Y15240000D02*
X12850000Y15240000D01*
X12700000Y48260000D02*
X19050000Y48260000D01*
X12850000Y52650000D02*
X12700000Y52070000D01*
X12700000Y52070000D02*
X6350000Y52070000D01*
X6350000Y52070000D02*
X6350000Y52650000D01*
X12850000Y38680000D02*
X12700000Y38100000D01*
X12700000Y38100000D02*
X16510000Y41910000D01*
X16510000Y41910000D02*
X24130000Y41910000D01*
X19050000Y21590000D02*
X21590000Y19050000D01*
X21590000Y19050000D02*
X21590000Y17780000D01*
X21590000Y17780000D02*
X24130000Y17780000D01*
X12850000Y38680000D02*
X12700000Y38100000D01*
X12700000Y38100000D02*
X6350000Y38100000D01*
X6350000Y38100000D02*
X6350000Y38680000D01*
X26670000Y55880000D02*
X27940000Y54610000D01*
X27940000Y54610000D02*
X33020000Y54610000D01*
X33020000Y54610000D02*
X34290000Y53340000D01*
X34290000Y53340000D02*
X34290000Y52070000D01*
X34290000Y52070000D02*
X35560000Y50800000D01*
X35560000Y50800000D02*
X35560000Y49530000D01*
X35560000Y49530000D02*
X36830000Y49530000D01*
X36830000Y49530000D02*
X36830000Y46990000D01*
X36830000Y46990000D02*
X44450000Y39370000D01*
X44450000Y39370000D02*
X44450000Y35560000D01*
X44450000Y35560000D02*
X45720000Y34290000D01*
X45720000Y34290000D02*
X45720000Y33020000D01*
X45720000Y33020000D02*
X48260000Y33020000D01*
X19050000Y17780000D02*
X19050000Y19050000D01*
X19050000Y19050000D02*
X13970000Y24130000D01*
X13970000Y24130000D02*
X12700000Y24130000D01*
X12700000Y24130000D02*
X12850000Y24710000D01*
X12700000Y20320000D02*
X20320000Y12700000D01*
X20320000Y12700000D02*
X24130000Y12700000D01*
X12850000Y24710000D02*
X12700000Y24130000D01*
X12700000Y24130000D02*
X6350000Y24130000D01*
X6350000Y24130000D02*
X6350000Y24710000D01*
X24130000Y10160000D02*
X12700000Y10160000D01*
X12700000Y10160000D02*
X12850000Y10740000D01*
X12850000Y10740000D02*
X12700000Y10160000D01*
X12700000Y10160000D02*
X6350000Y10160000D01*
X6350000Y10160000D02*
X6350000Y10740000D01*
X31750000Y29210000D02*
X29210000Y26670000D01*
X29210000Y26670000D02*
X21590000Y26670000D01*
X21590000Y26670000D02*
X21590000Y39370000D01*
X21590000Y39370000D02*
X24130000Y39370000D01*
X36830000Y17780000D02*
X34290000Y15240000D01*
X34290000Y15240000D02*
X31750000Y15240000D01*
X24130000Y36830000D02*
X26670000Y36830000D01*
X26670000Y36830000D02*
X29210000Y39370000D01*
X29210000Y39370000D02*
X31750000Y39370000D01*
X31750000Y17780000D02*
X34290000Y17780000D01*
X34290000Y17780000D02*
X35560000Y19050000D01*
X35560000Y19050000D02*
X38100000Y19050000D01*
X38100000Y19050000D02*
X38100000Y17780000D01*
X38100000Y17780000D02*
X43180000Y17780000D01*
X43180000Y17780000D02*
X43180000Y21590000D01*
X43180000Y21590000D02*
X45720000Y24130000D01*
X45720000Y24130000D02*
X45720000Y25400000D01*
X45720000Y25400000D02*
X48260000Y25400000D01*
X31750000Y41910000D02*
X34290000Y41910000D01*
X34290000Y41910000D02*
X34290000Y26670000D01*
X34290000Y26670000D02*
X30480000Y22860000D01*
X30480000Y22860000D02*
X29210000Y22860000D01*
X29210000Y22860000D02*
X29210000Y17780000D01*
X29210000Y17780000D02*
X31750000Y17780000D01*
X31750000Y5080000D02*
X34290000Y5080000D01*
X34290000Y5080000D02*
X34290000Y6350000D01*
X34290000Y6350000D02*
X48260000Y20320000D01*
X31750000Y12700000D02*
X29210000Y12700000D01*
X29210000Y12700000D02*
X29210000Y15240000D01*
X29210000Y15240000D02*
X27940000Y16510000D01*
X27940000Y16510000D02*
X27940000Y21590000D01*
X27940000Y21590000D02*
X24130000Y25400000D01*
X24130000Y25400000D02*
X20320000Y25400000D01*
X20320000Y25400000D02*
X13970000Y31750000D01*
X13970000Y31750000D02*
X10160000Y31750000D01*
X10160000Y31750000D02*
X5080000Y36830000D01*
X5080000Y36830000D02*
X3810000Y36830000D01*
X3810000Y36830000D02*
X3810000Y44450000D01*
X3810000Y44450000D02*
X10160000Y50800000D01*
X10160000Y50800000D02*
X15240000Y50800000D01*
X15240000Y50800000D02*
X17780000Y53340000D01*
X17780000Y53340000D02*
X31750000Y53340000D01*
X31750000Y53340000D02*
X33020000Y52070000D01*
X33020000Y52070000D02*
X33020000Y50800000D01*
X33020000Y50800000D02*
X35560000Y48260000D01*
X35560000Y48260000D02*
X35560000Y45720000D01*
X35560000Y45720000D02*
X43180000Y38100000D01*
X43180000Y38100000D02*
X43180000Y31750000D01*
X43180000Y31750000D02*
X45720000Y29210000D01*
X45720000Y29210000D02*
X45720000Y27940000D01*
X45720000Y27940000D02*
X48260000Y27940000D01*
M02*
